# xmcd
#
# Track frame offsets: 
#        182
#        11472
#        23920
#        36145
#        46297
#        56140
#        70635
#        81717
#        98157
#        108297
#        125017
#        135717
#        145647
#        169180
#        183670
#        207040
#        217542
#        228942
#        248597
#        269785
#
# Disc length: 3893 seconds
#
# Revision: 2
# Processed by: cddbd v1.5.2PL0 Copyright (c) Steve Scherf et al.
# Submitted via: ExactAudioCopy v0.99pb4
#
DISCID=180f3314
DTITLE=Ted Hawkins - The Ted Hawkins Story: Suffer No More
DYEAR=1900
DGENRE=Blues
TTITLE0=Whole Lot of Women
TTITLE1=Baby
TTITLE2=Who Got My Natural Comb?
TTITLE3=Watch Your Step (Acoustic Version)
TTITLE4=Sorry You're Sick
TTITLE5=The Lost Ones
TTITLE6=Bad Dog
TTITLE7=Happy Hour
TTITLE8=Cold and Bitter Tears
TTITLE9=I Got What I Wanted
TTITLE10=North to Alaska
TTITLE11=Don't Ever Leave Me
TTITLE12=Who Do You Love
TTITLE13=I Ain't Got Nothing Yet
TTITLE14=You're Beautiful to Me
TTITLE15=Happy Days
TTITLE16=Be with Me Jesus
TTITLE17=Strange Conversation
TTITLE18=Biloxi
TTITLE19=The Good and the Bad
EXTD=
EXTT0=
EXTT1=
EXTT2=
EXTT3=
EXTT4=
EXTT5=
EXTT6=
EXTT7=
EXTT8=
EXTT9=
EXTT10=
EXTT11=
EXTT12=
EXTT13=
EXTT14=
EXTT15=
EXTT16=
EXTT17=
EXTT18=
EXTT19=
PLAYORDER=
